<svg width="35" height="35" viewBox="0 0 35 35" fill="none" xmlns="http://www.w3.org/2000/svg">
<path d="M19.4444 0C19.94 0.000549709 20.4167 0.190321 20.7771 0.530538C21.1375 0.870756 21.3543 1.33574 21.3834 1.83049C21.4124 2.32524 21.2515 2.8124 20.9334 3.19245C20.6153 3.5725 20.1641 3.81674 19.6719 3.87528L19.4444 3.88889H3.88889V31.1111H31.1111V15.5556C31.1117 15.06 31.3014 14.5833 31.6416 14.2229C31.9819 13.8625 32.4469 13.6457 32.9416 13.6166C33.4363 13.5876 33.9235 13.7485 34.3036 14.0666C34.6836 14.3847 34.9279 14.8359 34.9864 15.3281L35 15.5556V31.1111C35.0003 32.0922 34.6298 33.0372 33.9626 33.7566C33.2955 34.476 32.3811 34.9167 31.4028 34.9903L31.1111 35H3.88889C2.90777 35.0003 1.96279 34.6298 1.24338 33.9626C0.523971 33.2955 0.0833066 32.3811 0.00972264 31.4028L1.94966e-07 31.1111V3.88889C-0.000310293 2.90777 0.370235 1.96279 1.03736 1.24338C1.70448 0.523971 2.61886 0.0833065 3.59722 0.00972244L3.88889 0H19.4444ZM31.5836 0.666944C31.9335 0.318212 32.4031 0.115746 32.8969 0.100668C33.3906 0.0855892 33.8717 0.259029 34.2422 0.585762C34.6128 0.912494 34.845 1.36802 34.8919 1.85981C34.9387 2.35161 34.7966 2.84279 34.4944 3.23361L34.3331 3.41833L15.0831 22.6664C14.7331 23.0151 14.2636 23.2176 13.7698 23.2327C13.276 23.2477 12.795 23.0743 12.4245 22.7476C12.0539 22.4208 11.8216 21.9653 11.7748 21.4735C11.7279 20.9817 11.87 20.4905 12.1722 20.0997L12.3336 19.9169L31.5836 0.666944Z" fill="#515151"/>
</svg>
